<mxfile host="65bd71144e">
    <diagram id="ce9Kh-0NV0lILGy7-LgY" name="Page-1">
        <mxGraphModel dx="611" dy="1645" grid="1" gridSize="10" guides="1" tooltips="1" connect="1" arrows="1" fold="1" page="0" pageScale="1" pageWidth="827" pageHeight="1169" background="none" math="0" shadow="0">
            <root>
                <mxCell id="0"/>
                <mxCell id="1" parent="0"/>
                <mxCell id="p4MHPP4dOXFgCDUE2EKb-68" value="" style="rounded=1;whiteSpace=wrap;html=1;fontSize=12;strokeColor=#00BF60;strokeWidth=4;" parent="1" vertex="1">
                    <mxGeometry x="970.0000000000001" y="-310" width="634" height="1093.5" as="geometry"/>
                </mxCell>
                <mxCell id="p4MHPP4dOXFgCDUE2EKb-32" value="" style="rounded=1;whiteSpace=wrap;html=1;fontSize=12;strokeColor=#FF0000;strokeWidth=3;" parent="1" vertex="1">
                    <mxGeometry x="141" y="-310" width="700" height="990" as="geometry"/>
                </mxCell>
                <mxCell id="p4MHPP4dOXFgCDUE2EKb-1" value="START" style="ellipse;whiteSpace=wrap;html=1;fontSize=16;" parent="1" vertex="1">
                    <mxGeometry x="305" y="-268" width="120" height="80" as="geometry"/>
                </mxCell>
                <mxCell id="p4MHPP4dOXFgCDUE2EKb-2" value="playerSelection()" style="shape=parallelogram;perimeter=parallelogramPerimeter;whiteSpace=wrap;html=1;fixedSize=1;fontSize=16;" parent="1" vertex="1">
                    <mxGeometry x="267.5" y="-140" width="195" height="60" as="geometry"/>
                </mxCell>
                <mxCell id="p4MHPP4dOXFgCDUE2EKb-3" value="Print ROUND outcome (string)" style="shape=parallelogram;perimeter=parallelogramPerimeter;whiteSpace=wrap;html=1;fixedSize=1;fontSize=16;fillColor=#ffe6cc;strokeColor=#d79b00;fontColor=#000000;" parent="1" vertex="1">
                    <mxGeometry x="254" y="191" width="211" height="60" as="geometry"/>
                </mxCell>
                <mxCell id="p4MHPP4dOXFgCDUE2EKb-4" value="getComputerChoice()" style="rounded=0;whiteSpace=wrap;html=1;fontSize=16;" parent="1" vertex="1">
                    <mxGeometry x="270" y="-29" width="194" height="60" as="geometry"/>
                </mxCell>
                <mxCell id="p4MHPP4dOXFgCDUE2EKb-28" value="" style="edgeStyle=none;curved=1;rounded=0;orthogonalLoop=1;jettySize=auto;html=1;fontSize=12;startSize=8;endSize=8;" parent="1" source="p4MHPP4dOXFgCDUE2EKb-5" edge="1">
                    <mxGeometry relative="1" as="geometry">
                        <mxPoint x="367" y="187" as="targetPoint"/>
                    </mxGeometry>
                </mxCell>
                <mxCell id="p4MHPP4dOXFgCDUE2EKb-5" value="&lt;font style=&quot;font-size: 12px;&quot;&gt;playSingleRound(playerSelection, getComputerChoice)&lt;/font&gt;" style="rounded=0;whiteSpace=wrap;html=1;fontSize=16;fillColor=#ffe6cc;strokeColor=#d79b00;fontColor=#000000;" parent="1" vertex="1">
                    <mxGeometry x="269.25" y="81" width="194.75" height="60" as="geometry"/>
                </mxCell>
                <mxCell id="p4MHPP4dOXFgCDUE2EKb-6" value="Tally up rounds played&lt;br&gt;(number)" style="shape=parallelogram;perimeter=parallelogramPerimeter;whiteSpace=wrap;html=1;fixedSize=1;fontSize=16;fillColor=#ffe6cc;strokeColor=#d79b00;fontColor=#000000;" parent="1" vertex="1">
                    <mxGeometry x="527" y="191" width="213" height="60" as="geometry"/>
                </mxCell>
                <mxCell id="p4MHPP4dOXFgCDUE2EKb-7" value="" style="endArrow=classic;html=1;rounded=0;fontSize=12;startSize=8;endSize=8;curved=1;" parent="1" edge="1">
                    <mxGeometry width="50" height="50" relative="1" as="geometry">
                        <mxPoint x="366" y="-188" as="sourcePoint"/>
                        <mxPoint x="366" y="-142" as="targetPoint"/>
                    </mxGeometry>
                </mxCell>
                <mxCell id="p4MHPP4dOXFgCDUE2EKb-8" value="" style="endArrow=classic;html=1;rounded=0;fontSize=12;startSize=8;endSize=8;curved=1;" parent="1" edge="1">
                    <mxGeometry width="50" height="50" relative="1" as="geometry">
                        <mxPoint x="364.5" y="-80" as="sourcePoint"/>
                        <mxPoint x="364.5" y="-34" as="targetPoint"/>
                    </mxGeometry>
                </mxCell>
                <mxCell id="p4MHPP4dOXFgCDUE2EKb-9" value="" style="endArrow=classic;html=1;rounded=0;fontSize=12;startSize=8;endSize=8;curved=1;" parent="1" edge="1">
                    <mxGeometry width="50" height="50" relative="1" as="geometry">
                        <mxPoint x="364.5" y="31" as="sourcePoint"/>
                        <mxPoint x="364.5" y="77" as="targetPoint"/>
                    </mxGeometry>
                </mxCell>
                <mxCell id="p4MHPP4dOXFgCDUE2EKb-11" value="" style="endArrow=none;html=1;rounded=0;fontSize=12;startSize=8;endSize=8;curved=1;entryX=0;entryY=0.5;entryDx=0;entryDy=0;" parent="1" target="p4MHPP4dOXFgCDUE2EKb-6" edge="1">
                    <mxGeometry width="50" height="50" relative="1" as="geometry">
                        <mxPoint x="456" y="220.5" as="sourcePoint"/>
                        <mxPoint x="518" y="218" as="targetPoint"/>
                    </mxGeometry>
                </mxCell>
                <mxCell id="p4MHPP4dOXFgCDUE2EKb-13" value="" style="endArrow=classic;html=1;rounded=0;fontSize=12;startSize=8;endSize=8;curved=1;" parent="1" edge="1">
                    <mxGeometry width="50" height="50" relative="1" as="geometry">
                        <mxPoint x="621" y="251" as="sourcePoint"/>
                        <mxPoint x="621" y="297" as="targetPoint"/>
                    </mxGeometry>
                </mxCell>
                <mxCell id="p4MHPP4dOXFgCDUE2EKb-14" value="" style="endArrow=classic;html=1;rounded=0;fontSize=12;startSize=8;endSize=8;curved=1;" parent="1" edge="1">
                    <mxGeometry width="50" height="50" relative="1" as="geometry">
                        <mxPoint x="620.29" y="382" as="sourcePoint"/>
                        <mxPoint x="620.29" y="428" as="targetPoint"/>
                    </mxGeometry>
                </mxCell>
                <mxCell id="p4MHPP4dOXFgCDUE2EKb-20" value="TRUE" style="text;strokeColor=none;fillColor=none;html=1;align=center;verticalAlign=middle;whiteSpace=wrap;rounded=0;fontSize=12;" parent="1" vertex="1">
                    <mxGeometry x="335" y="316" width="60" height="30" as="geometry"/>
                </mxCell>
                <mxCell id="p4MHPP4dOXFgCDUE2EKb-21" value="FALSE" style="text;strokeColor=none;fillColor=none;html=1;align=center;verticalAlign=middle;whiteSpace=wrap;rounded=0;fontSize=12;" parent="1" vertex="1">
                    <mxGeometry x="616" y="387" width="60" height="30" as="geometry"/>
                </mxCell>
                <mxCell id="p4MHPP4dOXFgCDUE2EKb-22" value="Print GAME outcome&lt;br&gt;(string)" style="shape=parallelogram;perimeter=parallelogramPerimeter;whiteSpace=wrap;html=1;fixedSize=1;fontSize=16;" parent="1" vertex="1">
                    <mxGeometry x="523.5" y="436" width="195" height="60" as="geometry"/>
                </mxCell>
                <mxCell id="p4MHPP4dOXFgCDUE2EKb-23" value="END" style="ellipse;whiteSpace=wrap;html=1;fontSize=16;" parent="1" vertex="1">
                    <mxGeometry x="561" y="548" width="120" height="80" as="geometry"/>
                </mxCell>
                <mxCell id="p4MHPP4dOXFgCDUE2EKb-24" value="" style="endArrow=classic;html=1;rounded=0;fontSize=12;startSize=8;endSize=8;curved=1;" parent="1" edge="1">
                    <mxGeometry width="50" height="50" relative="1" as="geometry">
                        <mxPoint x="620.29" y="495.9999999999998" as="sourcePoint"/>
                        <mxPoint x="620.29" y="542" as="targetPoint"/>
                    </mxGeometry>
                </mxCell>
                <mxCell id="p4MHPP4dOXFgCDUE2EKb-25" value="*declarative (what)" style="text;strokeColor=#6c8ebf;fillColor=#dae8fc;html=1;align=center;verticalAlign=middle;whiteSpace=wrap;rounded=0;fontSize=12;fontColor=#000000;" parent="1" vertex="1">
                    <mxGeometry x="488" y="-25" width="60" height="30" as="geometry"/>
                </mxCell>
                <mxCell id="p4MHPP4dOXFgCDUE2EKb-26" value="imperative (how)" style="text;strokeColor=#6c8ebf;fillColor=#dae8fc;html=1;align=center;verticalAlign=middle;whiteSpace=wrap;rounded=0;fontSize=12;fontColor=#000000;" parent="1" vertex="1">
                    <mxGeometry x="472" y="179" width="60" height="30" as="geometry"/>
                </mxCell>
                <mxCell id="p4MHPP4dOXFgCDUE2EKb-27" value="playSingleRound(....)" style="shape=parallelogram;perimeter=parallelogramPerimeter;whiteSpace=wrap;html=1;fixedSize=1;fontSize=16;labelBackgroundColor=none;labelBorderColor=none;fillColor=#ffe6cc;strokeColor=#d79b00;fontColor=#000000;" parent="1" vertex="1">
                    <mxGeometry x="526" y="-258" width="195" height="60" as="geometry"/>
                </mxCell>
                <mxCell id="p4MHPP4dOXFgCDUE2EKb-34" value="1st iteration" style="text;strokeColor=#B20000;fillColor=#e51400;html=1;align=center;verticalAlign=middle;whiteSpace=wrap;rounded=0;labelBackgroundColor=none;labelBorderColor=none;fontSize=12;fontColor=#ffffff;" parent="1" vertex="1">
                    <mxGeometry x="189" y="606" width="60" height="30" as="geometry"/>
                </mxCell>
                <mxCell id="p4MHPP4dOXFgCDUE2EKb-67" value="" style="group" parent="1" vertex="1" connectable="0">
                    <mxGeometry x="1058.12" y="-274" width="457.75" height="977" as="geometry"/>
                </mxCell>
                <mxCell id="p4MHPP4dOXFgCDUE2EKb-43" value="v" style="shape=hexagon;perimeter=hexagonPerimeter2;whiteSpace=wrap;html=1;fixedSize=1;labelBackgroundColor=none;labelBorderColor=none;fontSize=12;" parent="p4MHPP4dOXFgCDUE2EKb-67" vertex="1">
                    <mxGeometry x="89" y="133" width="368.75" height="403" as="geometry"/>
                </mxCell>
                <mxCell id="p4MHPP4dOXFgCDUE2EKb-35" value="&lt;font style=&quot;font-size: 16px;&quot;&gt;START&lt;/font&gt;" style="ellipse;whiteSpace=wrap;html=1;labelBackgroundColor=none;labelBorderColor=none;fontSize=12;" parent="p4MHPP4dOXFgCDUE2EKb-67" vertex="1">
                    <mxGeometry x="213.3800000000001" width="120" height="80" as="geometry"/>
                </mxCell>
                <mxCell id="p4MHPP4dOXFgCDUE2EKb-40" value="" style="endArrow=classic;html=1;rounded=0;fontSize=12;startSize=8;endSize=8;curved=1;" parent="p4MHPP4dOXFgCDUE2EKb-67" edge="1">
                    <mxGeometry width="50" height="50" relative="1" as="geometry">
                        <mxPoint x="272.99000000000024" y="80" as="sourcePoint"/>
                        <mxPoint x="272.99000000000024" y="126" as="targetPoint"/>
                    </mxGeometry>
                </mxCell>
                <mxCell id="p4MHPP4dOXFgCDUE2EKb-44" value="" style="group;fontSize=16;" parent="p4MHPP4dOXFgCDUE2EKb-67" vertex="1" connectable="0">
                    <mxGeometry x="178.1300000000001" y="195" width="196.5" height="386" as="geometry"/>
                </mxCell>
                <mxCell id="p4MHPP4dOXFgCDUE2EKb-48" value="" style="group" parent="p4MHPP4dOXFgCDUE2EKb-44" vertex="1" connectable="0">
                    <mxGeometry y="17" width="196.5" height="386" as="geometry"/>
                </mxCell>
                <mxCell id="p4MHPP4dOXFgCDUE2EKb-37" value="getComputerChoice()" style="rounded=0;whiteSpace=wrap;html=1;fontSize=16;" parent="p4MHPP4dOXFgCDUE2EKb-48" vertex="1">
                    <mxGeometry x="2.5" y="111" width="194" height="60" as="geometry"/>
                </mxCell>
                <mxCell id="p4MHPP4dOXFgCDUE2EKb-38" value="" style="edgeStyle=none;curved=1;rounded=0;orthogonalLoop=1;jettySize=auto;html=1;fontSize=12;startSize=8;endSize=8;" parent="p4MHPP4dOXFgCDUE2EKb-48" source="p4MHPP4dOXFgCDUE2EKb-39" edge="1">
                    <mxGeometry relative="1" as="geometry">
                        <mxPoint x="100" y="386" as="targetPoint"/>
                    </mxGeometry>
                </mxCell>
                <mxCell id="p4MHPP4dOXFgCDUE2EKb-39" value="&lt;font style=&quot;font-size: 16px;&quot;&gt;determineWinner()&lt;/font&gt;" style="rounded=0;whiteSpace=wrap;html=1;fontSize=16;" parent="p4MHPP4dOXFgCDUE2EKb-48" vertex="1">
                    <mxGeometry x="1.75" y="221" width="194.75" height="60" as="geometry"/>
                </mxCell>
                <mxCell id="p4MHPP4dOXFgCDUE2EKb-41" value="" style="endArrow=classic;html=1;rounded=0;fontSize=12;startSize=8;endSize=8;curved=1;" parent="p4MHPP4dOXFgCDUE2EKb-48" edge="1">
                    <mxGeometry width="50" height="50" relative="1" as="geometry">
                        <mxPoint x="97" y="60" as="sourcePoint"/>
                        <mxPoint x="97" y="106" as="targetPoint"/>
                    </mxGeometry>
                </mxCell>
                <mxCell id="p4MHPP4dOXFgCDUE2EKb-42" value="" style="endArrow=classic;html=1;rounded=0;fontSize=12;startSize=8;endSize=8;curved=1;" parent="p4MHPP4dOXFgCDUE2EKb-48" edge="1">
                    <mxGeometry width="50" height="50" relative="1" as="geometry">
                        <mxPoint x="97" y="171" as="sourcePoint"/>
                        <mxPoint x="97" y="217" as="targetPoint"/>
                    </mxGeometry>
                </mxCell>
                <mxCell id="p4MHPP4dOXFgCDUE2EKb-45" value="&lt;font style=&quot;font-size: 16px;&quot;&gt;playSingleRound()&lt;/font&gt;" style="text;strokeColor=none;fillColor=none;html=1;align=center;verticalAlign=middle;whiteSpace=wrap;rounded=0;labelBackgroundColor=none;labelBorderColor=none;fontSize=12;fontStyle=1" parent="p4MHPP4dOXFgCDUE2EKb-67" vertex="1">
                    <mxGeometry x="132" y="147" width="154.13" height="36" as="geometry"/>
                </mxCell>
                <mxCell id="p4MHPP4dOXFgCDUE2EKb-61" style="edgeStyle=none;curved=1;rounded=0;orthogonalLoop=1;jettySize=auto;html=1;exitX=0.5;exitY=1;exitDx=0;exitDy=0;fontSize=16;startSize=8;endSize=8;" parent="p4MHPP4dOXFgCDUE2EKb-67" source="p4MHPP4dOXFgCDUE2EKb-49" edge="1">
                    <mxGeometry relative="1" as="geometry">
                        <mxPoint x="279" y="763.6842105263158" as="targetPoint"/>
                    </mxGeometry>
                </mxCell>
                <mxCell id="p4MHPP4dOXFgCDUE2EKb-62" value="FALSE" style="edgeLabel;html=1;align=center;verticalAlign=middle;resizable=0;points=[];fontSize=16;" parent="p4MHPP4dOXFgCDUE2EKb-61" vertex="1" connectable="0">
                    <mxGeometry x="0.0903" relative="1" as="geometry">
                        <mxPoint x="2" y="-11" as="offset"/>
                    </mxGeometry>
                </mxCell>
                <mxCell id="p4MHPP4dOXFgCDUE2EKb-49" value="while roundsPlayed &amp;lt; 5" style="rhombus;whiteSpace=wrap;html=1;fontSize=16;" parent="p4MHPP4dOXFgCDUE2EKb-67" vertex="1">
                    <mxGeometry x="154.51" y="604" width="249" height="80" as="geometry"/>
                </mxCell>
                <mxCell id="p4MHPP4dOXFgCDUE2EKb-57" value="" style="endArrow=none;html=1;rounded=0;fontSize=16;startSize=8;endSize=8;curved=1;entryX=0;entryY=0.5;entryDx=0;entryDy=0;" parent="p4MHPP4dOXFgCDUE2EKb-67" target="p4MHPP4dOXFgCDUE2EKb-49" edge="1">
                    <mxGeometry width="50" height="50" relative="1" as="geometry">
                        <mxPoint x="3" y="645" as="sourcePoint"/>
                        <mxPoint x="-95" y="366" as="targetPoint"/>
                    </mxGeometry>
                </mxCell>
                <mxCell id="p4MHPP4dOXFgCDUE2EKb-60" value="TRUE" style="edgeLabel;html=1;align=center;verticalAlign=middle;resizable=0;points=[];fontSize=16;" parent="p4MHPP4dOXFgCDUE2EKb-57" vertex="1" connectable="0">
                    <mxGeometry x="-0.0869" relative="1" as="geometry">
                        <mxPoint x="17" y="-1" as="offset"/>
                    </mxGeometry>
                </mxCell>
                <mxCell id="p4MHPP4dOXFgCDUE2EKb-58" value="" style="endArrow=none;html=1;rounded=0;fontSize=16;startSize=8;endSize=8;curved=1;" parent="p4MHPP4dOXFgCDUE2EKb-67" edge="1">
                    <mxGeometry width="50" height="50" relative="1" as="geometry">
                        <mxPoint x="4" y="644" as="sourcePoint"/>
                        <mxPoint y="334" as="targetPoint"/>
                    </mxGeometry>
                </mxCell>
                <mxCell id="p4MHPP4dOXFgCDUE2EKb-59" value="" style="endArrow=classic;html=1;rounded=0;fontSize=16;startSize=8;endSize=8;curved=1;" parent="p4MHPP4dOXFgCDUE2EKb-67" target="p4MHPP4dOXFgCDUE2EKb-43" edge="1">
                    <mxGeometry width="50" height="50" relative="1" as="geometry">
                        <mxPoint x="1" y="335" as="sourcePoint"/>
                        <mxPoint x="-95" y="366" as="targetPoint"/>
                    </mxGeometry>
                </mxCell>
                <mxCell id="p4MHPP4dOXFgCDUE2EKb-65" style="edgeStyle=none;curved=1;rounded=0;orthogonalLoop=1;jettySize=auto;html=1;fontSize=16;startSize=8;endSize=8;" parent="p4MHPP4dOXFgCDUE2EKb-67" source="p4MHPP4dOXFgCDUE2EKb-63" edge="1">
                    <mxGeometry relative="1" as="geometry">
                        <mxPoint x="280.0526315789475" y="890" as="targetPoint"/>
                    </mxGeometry>
                </mxCell>
                <mxCell id="p4MHPP4dOXFgCDUE2EKb-63" value="&lt;font style=&quot;font-size: 16px;&quot;&gt;declareChampion()&lt;/font&gt;" style="rounded=0;whiteSpace=wrap;html=1;fontSize=16;" parent="p4MHPP4dOXFgCDUE2EKb-67" vertex="1">
                    <mxGeometry x="181.6300000000001" y="771" width="194.75" height="60" as="geometry"/>
                </mxCell>
                <mxCell id="p4MHPP4dOXFgCDUE2EKb-64" value="END" style="ellipse;whiteSpace=wrap;html=1;fontSize=16;" parent="p4MHPP4dOXFgCDUE2EKb-67" vertex="1">
                    <mxGeometry x="219.01" y="897" width="120" height="80" as="geometry"/>
                </mxCell>
                <mxCell id="p4MHPP4dOXFgCDUE2EKb-66" value="playerSelection()" style="shape=step;perimeter=stepPerimeter;whiteSpace=wrap;html=1;fixedSize=1;labelBackgroundColor=none;labelBorderColor=none;fontSize=16;" parent="p4MHPP4dOXFgCDUE2EKb-67" vertex="1">
                    <mxGeometry x="171.8699999999999" y="199" width="203" height="73" as="geometry"/>
                </mxCell>
                <mxCell id="p4MHPP4dOXFgCDUE2EKb-69" value="2nd iteration" style="text;strokeColor=#2D7600;fillColor=#60a917;html=1;align=center;verticalAlign=middle;whiteSpace=wrap;rounded=0;labelBackgroundColor=none;labelBorderColor=none;fontSize=12;fontColor=#ffffff;" parent="1" vertex="1">
                    <mxGeometry x="1016.12" y="719" width="60" height="30" as="geometry"/>
                </mxCell>
                <mxCell id="p4MHPP4dOXFgCDUE2EKb-12" value="if roundsPlayed &amp;lt; 5" style="rhombus;whiteSpace=wrap;html=1;fontSize=12;" parent="1" vertex="1">
                    <mxGeometry x="521" y="302" width="200" height="80" as="geometry"/>
                </mxCell>
                <mxCell id="p4MHPP4dOXFgCDUE2EKb-29" value="" style="group" parent="1" vertex="1" connectable="0">
                    <mxGeometry x="178" y="111" width="95" height="231" as="geometry"/>
                </mxCell>
                <mxCell id="p4MHPP4dOXFgCDUE2EKb-17" value="" style="endArrow=none;html=1;rounded=0;fontSize=12;startSize=8;endSize=8;curved=1;exitX=0;exitY=0.5;exitDx=0;exitDy=0;" parent="p4MHPP4dOXFgCDUE2EKb-29" source="p4MHPP4dOXFgCDUE2EKb-12" edge="1">
                    <mxGeometry width="50" height="50" relative="1" as="geometry">
                        <mxPoint x="331.06060606060606" y="211.11258278145698" as="sourcePoint"/>
                        <mxPoint y="231.00000000000003" as="targetPoint"/>
                    </mxGeometry>
                </mxCell>
                <mxCell id="p4MHPP4dOXFgCDUE2EKb-18" value="" style="endArrow=none;html=1;rounded=0;fontSize=12;startSize=8;endSize=8;curved=1;" parent="p4MHPP4dOXFgCDUE2EKb-29" edge="1">
                    <mxGeometry width="50" height="50" relative="1" as="geometry">
                        <mxPoint x="1.9191919191919191" y="229.98013245033115" as="sourcePoint"/>
                        <mxPoint x="1.9191919191919191" as="targetPoint"/>
                    </mxGeometry>
                </mxCell>
                <mxCell id="p4MHPP4dOXFgCDUE2EKb-19" value="" style="endArrow=classic;html=1;rounded=0;fontSize=12;startSize=8;endSize=8;curved=1;" parent="p4MHPP4dOXFgCDUE2EKb-29" edge="1">
                    <mxGeometry width="50" height="50" relative="1" as="geometry">
                        <mxPoint x="4.797979797979798" y="0.5099337748344371" as="sourcePoint"/>
                        <mxPoint x="95" y="0.3773509933774881" as="targetPoint"/>
                    </mxGeometry>
                </mxCell>
            </root>
        </mxGraphModel>
    </diagram>
</mxfile>